# xmcd
#
# Track frame offsets:
#	150
#	14385
#	31460
#	52447
#	68882
#	82877
#	100372
#	117010
#	132930
#	147935
#	159972
#
# Disc length: 2333 seconds
#
# Revision: 4
# Processed by: cddbd v1.5.1PL0 Copyright (c) Steve Scherf et al.
# Submitted via: dBpowerAMP V4.0
#
DISCID=93091b0b
DTITLE=Various Artist - Total Country - Volume 2
DYEAR=1900
DGENRE=Country
TTITLE0=Kenny Chesney - how forever feels
TTITLE1=Collin Raye - anyone else
TTITLE2=Alabama - god must have spent a little more time on you
TTITLE3=Jo Dee Messina - lesson in leavin'
TTITLE4=Alan Jackson - pop a top
TTITLE5=Dixie Chicks - ready to run
TTITLE6=Mark Wills - almost doesn't count
TTITLE7=Joe Diffie - a night to remember
TTITLE8=Montgomery Gentry - lonely and gone
TTITLE9=Yankee Grey - all things considered
TTITLE10=Shedaisy - little good-byes
EXTD=
EXTT0=
EXTT1=
EXTT2=
EXTT3=
EXTT4=
EXTT5=
EXTT6=
EXTT7=
EXTT8=
EXTT9=
EXTT10=
PLAYORDER=
